<svg width="754" height="277" viewBox="0 0 754 277" fill="none" xmlns="http://www.w3.org/2000/svg">
<rect width="754" height="277" fill="white"/>
<path d="M70 105V101M70 101H216M70 101V97M216 101V105M216 101V97" stroke="#CED6DE" stroke-linecap="round" stroke-linejoin="round"/>
<path d="M143 101L143 93" stroke="#CED6DE" stroke-linecap="round" stroke-linejoin="round"/>
<circle cx="143" cy="101" r="2.5" fill="white" stroke="#CED6DE"/>
<path d="M121.241 63.524V66.32H124.289V67.22H121.241V70.1H124.649V71H120.149V62.624H124.649V63.524H121.241ZM129.505 64.304C130.305 64.304 130.953 64.548 131.449 65.036C131.945 65.516 132.193 66.212 132.193 67.124V71H131.113V67.28C131.113 66.624 130.949 66.124 130.621 65.78C130.293 65.428 129.845 65.252 129.277 65.252C128.701 65.252 128.241 65.432 127.897 65.792C127.561 66.152 127.393 66.676 127.393 67.364V71H126.301V64.424H127.393V65.36C127.609 65.024 127.901 64.764 128.269 64.58C128.645 64.396 129.057 64.304 129.505 64.304ZM133.569 67.688C133.569 67.016 133.705 66.428 133.977 65.924C134.249 65.412 134.621 65.016 135.093 64.736C135.573 64.456 136.105 64.316 136.689 64.316C137.265 64.316 137.765 64.44 138.189 64.688C138.613 64.936 138.929 65.248 139.137 65.624V64.424H140.241V71H139.137V69.776C138.921 70.16 138.597 70.48 138.165 70.736C137.741 70.984 137.245 71.108 136.677 71.108C136.093 71.108 135.565 70.964 135.093 70.676C134.621 70.388 134.249 69.984 133.977 69.464C133.705 68.944 133.569 68.352 133.569 67.688ZM139.137 67.7C139.137 67.204 139.037 66.772 138.837 66.404C138.637 66.036 138.365 65.756 138.021 65.564C137.685 65.364 137.313 65.264 136.905 65.264C136.497 65.264 136.125 65.36 135.789 65.552C135.453 65.744 135.185 66.024 134.985 66.392C134.785 66.76 134.685 67.192 134.685 67.688C134.685 68.192 134.785 68.632 134.985 69.008C135.185 69.376 135.453 69.66 135.789 69.86C136.125 70.052 136.497 70.148 136.905 70.148C137.313 70.148 137.685 70.052 138.021 69.86C138.365 69.66 138.637 69.376 138.837 69.008C139.037 68.632 139.137 68.196 139.137 67.7ZM143.178 65.648C143.402 65.256 143.73 64.936 144.162 64.688C144.594 64.44 145.086 64.316 145.638 64.316C146.23 64.316 146.762 64.456 147.234 64.736C147.706 65.016 148.078 65.412 148.35 65.924C148.622 66.428 148.758 67.016 148.758 67.688C148.758 68.352 148.622 68.944 148.35 69.464C148.078 69.984 147.702 70.388 147.222 70.676C146.75 70.964 146.222 71.108 145.638 71.108C145.07 71.108 144.57 70.984 144.138 70.736C143.714 70.488 143.394 70.172 143.178 69.788V71H142.086V62.12H143.178V65.648ZM147.642 67.688C147.642 67.192 147.542 66.76 147.342 66.392C147.142 66.024 146.87 65.744 146.526 65.552C146.19 65.36 145.818 65.264 145.41 65.264C145.01 65.264 144.638 65.364 144.294 65.564C143.958 65.756 143.686 66.04 143.478 66.416C143.278 66.784 143.178 67.212 143.178 67.7C143.178 68.196 143.278 68.632 143.478 69.008C143.686 69.376 143.958 69.66 144.294 69.86C144.638 70.052 145.01 70.148 145.41 70.148C145.818 70.148 146.19 70.052 146.526 69.86C146.87 69.66 147.142 69.376 147.342 69.008C147.542 68.632 147.642 68.192 147.642 67.688ZM151.287 62.12V71H150.195V62.12H151.287ZM159.149 67.46C159.149 67.668 159.137 67.888 159.113 68.12H153.857C153.897 68.768 154.117 69.276 154.517 69.644C154.925 70.004 155.417 70.184 155.993 70.184C156.465 70.184 156.857 70.076 157.169 69.86C157.489 69.636 157.713 69.34 157.841 68.972H159.017C158.841 69.604 158.489 70.12 157.961 70.52C157.433 70.912 156.777 71.108 155.993 71.108C155.369 71.108 154.809 70.968 154.313 70.688C153.825 70.408 153.441 70.012 153.161 69.5C152.881 68.98 152.741 68.38 152.741 67.7C152.741 67.02 152.877 66.424 153.149 65.912C153.421 65.4 153.801 65.008 154.289 64.736C154.785 64.456 155.353 64.316 155.993 64.316C156.617 64.316 157.169 64.452 157.649 64.724C158.129 64.996 158.497 65.372 158.753 65.852C159.017 66.324 159.149 66.86 159.149 67.46ZM158.021 67.232C158.021 66.816 157.929 66.46 157.745 66.164C157.561 65.86 157.309 65.632 156.989 65.48C156.677 65.32 156.329 65.24 155.945 65.24C155.393 65.24 154.921 65.416 154.529 65.768C154.145 66.12 153.925 66.608 153.869 67.232H158.021ZM160.182 67.688C160.182 67.016 160.318 66.428 160.59 65.924C160.862 65.412 161.234 65.016 161.706 64.736C162.186 64.456 162.722 64.316 163.314 64.316C163.826 64.316 164.302 64.436 164.742 64.676C165.182 64.908 165.518 65.216 165.75 65.6V62.12H166.854V71H165.75V69.764C165.534 70.156 165.214 70.48 164.79 70.736C164.366 70.984 163.87 71.108 163.302 71.108C162.718 71.108 162.186 70.964 161.706 70.676C161.234 70.388 160.862 69.984 160.59 69.464C160.318 68.944 160.182 68.352 160.182 67.688ZM165.75 67.7C165.75 67.204 165.65 66.772 165.45 66.404C165.25 66.036 164.978 65.756 164.634 65.564C164.298 65.364 163.926 65.264 163.518 65.264C163.11 65.264 162.738 65.36 162.402 65.552C162.066 65.744 161.798 66.024 161.598 66.392C161.398 66.76 161.298 67.192 161.298 67.688C161.298 68.192 161.398 68.632 161.598 69.008C161.798 69.376 162.066 69.66 162.402 69.86C162.738 70.052 163.11 70.148 163.518 70.148C163.926 70.148 164.298 70.052 164.634 69.86C164.978 69.66 165.25 69.376 165.45 69.008C165.65 68.632 165.75 68.196 165.75 67.7Z" fill="#505F79"/>
<path d="M225 105V101M225 101H371M225 101V97M371 101V105M371 101V97" stroke="#CED6DE" stroke-linecap="round" stroke-linejoin="round"/>
<path d="M298 101L298 93" stroke="#CED6DE" stroke-linecap="round" stroke-linejoin="round"/>
<circle cx="298" cy="101" r="2.5" fill="white" stroke="#CED6DE"/>
<path d="M288.554 62.636V71H287.462V67.208H283.202V71H282.11V62.636H283.202V66.308H287.462V62.636H288.554ZM293.286 71.108C292.67 71.108 292.11 70.968 291.606 70.688C291.11 70.408 290.718 70.012 290.43 69.5C290.15 68.98 290.01 68.38 290.01 67.7C290.01 67.028 290.154 66.436 290.442 65.924C290.738 65.404 291.138 65.008 291.642 64.736C292.146 64.456 292.71 64.316 293.334 64.316C293.958 64.316 294.522 64.456 295.026 64.736C295.53 65.008 295.926 65.4 296.214 65.912C296.51 66.424 296.658 67.02 296.658 67.7C296.658 68.38 296.506 68.98 296.202 69.5C295.906 70.012 295.502 70.408 294.99 70.688C294.478 70.968 293.91 71.108 293.286 71.108ZM293.286 70.148C293.678 70.148 294.046 70.056 294.39 69.872C294.734 69.688 295.01 69.412 295.218 69.044C295.434 68.676 295.542 68.228 295.542 67.7C295.542 67.172 295.438 66.724 295.23 66.356C295.022 65.988 294.75 65.716 294.414 65.54C294.078 65.356 293.714 65.264 293.322 65.264C292.922 65.264 292.554 65.356 292.218 65.54C291.89 65.716 291.626 65.988 291.426 66.356C291.226 66.724 291.126 67.172 291.126 67.7C291.126 68.236 291.222 68.688 291.414 69.056C291.614 69.424 291.878 69.7 292.206 69.884C292.534 70.06 292.894 70.148 293.286 70.148ZM300.542 69.992L302.582 64.424H303.746L301.166 71H299.894L297.314 64.424H298.49L300.542 69.992ZM310.82 67.46C310.82 67.668 310.808 67.888 310.784 68.12H305.528C305.568 68.768 305.788 69.276 306.188 69.644C306.596 70.004 307.088 70.184 307.664 70.184C308.136 70.184 308.528 70.076 308.84 69.86C309.16 69.636 309.384 69.34 309.512 68.972H310.688C310.512 69.604 310.16 70.12 309.632 70.52C309.104 70.912 308.448 71.108 307.664 71.108C307.04 71.108 306.48 70.968 305.984 70.688C305.496 70.408 305.112 70.012 304.832 69.5C304.552 68.98 304.412 68.38 304.412 67.7C304.412 67.02 304.548 66.424 304.82 65.912C305.092 65.4 305.472 65.008 305.96 64.736C306.456 64.456 307.024 64.316 307.664 64.316C308.288 64.316 308.84 64.452 309.32 64.724C309.8 64.996 310.168 65.372 310.424 65.852C310.688 66.324 310.82 66.86 310.82 67.46ZM309.692 67.232C309.692 66.816 309.6 66.46 309.416 66.164C309.232 65.86 308.98 65.632 308.66 65.48C308.348 65.32 308 65.24 307.616 65.24C307.064 65.24 306.592 65.416 306.2 65.768C305.816 66.12 305.596 66.608 305.54 67.232H309.692ZM313.354 65.492C313.546 65.116 313.818 64.824 314.17 64.616C314.53 64.408 314.966 64.304 315.478 64.304V65.432H315.19C313.966 65.432 313.354 66.096 313.354 67.424V71H312.262V64.424H313.354V65.492Z" fill="#505F79"/>
<path d="M380 105V101M380 101H526M380 101V97M526 101V105M526 101V97" stroke="#CED6DE" stroke-linecap="round" stroke-linejoin="round"/>
<path d="M453 101L453 93" stroke="#CED6DE" stroke-linecap="round" stroke-linejoin="round"/>
<circle cx="453" cy="101" r="2.5" fill="white" stroke="#CED6DE"/>
<path d="M436.537 65.084C436.537 65.78 436.297 66.36 435.817 66.824C435.345 67.28 434.621 67.508 433.645 67.508H432.037V71H430.945V62.636H433.645C434.589 62.636 435.305 62.864 435.793 63.32C436.289 63.776 436.537 64.364 436.537 65.084ZM433.645 66.608C434.253 66.608 434.701 66.476 434.989 66.212C435.277 65.948 435.421 65.572 435.421 65.084C435.421 64.052 434.829 63.536 433.645 63.536H432.037V66.608H433.645ZM438.987 65.492C439.179 65.116 439.451 64.824 439.803 64.616C440.163 64.408 440.599 64.304 441.111 64.304V65.432H440.823C439.599 65.432 438.987 66.096 438.987 67.424V71H437.895V64.424H438.987V65.492ZM448.371 67.46C448.371 67.668 448.359 67.888 448.335 68.12H443.079C443.119 68.768 443.339 69.276 443.739 69.644C444.147 70.004 444.639 70.184 445.215 70.184C445.687 70.184 446.079 70.076 446.391 69.86C446.711 69.636 446.935 69.34 447.063 68.972H448.239C448.063 69.604 447.711 70.12 447.183 70.52C446.655 70.912 445.999 71.108 445.215 71.108C444.591 71.108 444.031 70.968 443.535 70.688C443.047 70.408 442.663 70.012 442.383 69.5C442.103 68.98 441.963 68.38 441.963 67.7C441.963 67.02 442.099 66.424 442.371 65.912C442.643 65.4 443.023 65.008 443.511 64.736C444.007 64.456 444.575 64.316 445.215 64.316C445.839 64.316 446.391 64.452 446.871 64.724C447.351 64.996 447.719 65.372 447.975 65.852C448.239 66.324 448.371 66.86 448.371 67.46ZM447.243 67.232C447.243 66.816 447.151 66.46 446.967 66.164C446.783 65.86 446.531 65.632 446.211 65.48C445.899 65.32 445.551 65.24 445.167 65.24C444.615 65.24 444.143 65.416 443.751 65.768C443.367 66.12 443.147 66.608 443.091 67.232H447.243ZM452.141 71.108C451.637 71.108 451.185 71.024 450.785 70.856C450.385 70.68 450.069 70.44 449.837 70.136C449.605 69.824 449.477 69.468 449.453 69.068H450.581C450.613 69.396 450.765 69.664 451.037 69.872C451.317 70.08 451.681 70.184 452.129 70.184C452.545 70.184 452.873 70.092 453.113 69.908C453.353 69.724 453.473 69.492 453.473 69.212C453.473 68.924 453.345 68.712 453.089 68.576C452.833 68.432 452.437 68.292 451.901 68.156C451.413 68.028 451.013 67.9 450.701 67.772C450.397 67.636 450.133 67.44 449.909 67.184C449.693 66.92 449.585 66.576 449.585 66.152C449.585 65.816 449.685 65.508 449.885 65.228C450.085 64.948 450.369 64.728 450.737 64.568C451.105 64.4 451.525 64.316 451.997 64.316C452.725 64.316 453.313 64.5 453.761 64.868C454.209 65.236 454.449 65.74 454.481 66.38H453.389C453.365 66.036 453.225 65.76 452.969 65.552C452.721 65.344 452.385 65.24 451.961 65.24C451.569 65.24 451.257 65.324 451.025 65.492C450.793 65.66 450.677 65.88 450.677 66.152C450.677 66.368 450.745 66.548 450.881 66.692C451.025 66.828 451.201 66.94 451.409 67.028C451.625 67.108 451.921 67.2 452.297 67.304C452.769 67.432 453.153 67.56 453.449 67.688C453.745 67.808 453.997 67.992 454.205 68.24C454.421 68.488 454.533 68.812 454.541 69.212C454.541 69.572 454.441 69.896 454.241 70.184C454.041 70.472 453.757 70.7 453.389 70.868C453.029 71.028 452.613 71.108 452.141 71.108ZM458.41 71.108C457.906 71.108 457.454 71.024 457.054 70.856C456.654 70.68 456.338 70.44 456.106 70.136C455.874 69.824 455.746 69.468 455.722 69.068H456.85C456.882 69.396 457.034 69.664 457.306 69.872C457.586 70.08 457.95 70.184 458.398 70.184C458.814 70.184 459.142 70.092 459.382 69.908C459.622 69.724 459.742 69.492 459.742 69.212C459.742 68.924 459.614 68.712 459.358 68.576C459.102 68.432 458.706 68.292 458.17 68.156C457.682 68.028 457.282 67.9 456.97 67.772C456.666 67.636 456.402 67.44 456.178 67.184C455.962 66.92 455.854 66.576 455.854 66.152C455.854 65.816 455.954 65.508 456.154 65.228C456.354 64.948 456.638 64.728 457.006 64.568C457.374 64.4 457.794 64.316 458.266 64.316C458.994 64.316 459.582 64.5 460.03 64.868C460.478 65.236 460.718 65.74 460.75 66.38H459.658C459.634 66.036 459.494 65.76 459.238 65.552C458.99 65.344 458.654 65.24 458.23 65.24C457.838 65.24 457.526 65.324 457.294 65.492C457.062 65.66 456.946 65.88 456.946 66.152C456.946 66.368 457.014 66.548 457.15 66.692C457.294 66.828 457.47 66.94 457.678 67.028C457.894 67.108 458.19 67.2 458.566 67.304C459.038 67.432 459.422 67.56 459.718 67.688C460.014 67.808 460.266 67.992 460.474 68.24C460.69 68.488 460.802 68.812 460.81 69.212C460.81 69.572 460.71 69.896 460.51 70.184C460.31 70.472 460.026 70.7 459.658 70.868C459.298 71.028 458.882 71.108 458.41 71.108ZM468.352 67.46C468.352 67.668 468.34 67.888 468.316 68.12H463.06C463.1 68.768 463.32 69.276 463.72 69.644C464.128 70.004 464.62 70.184 465.196 70.184C465.668 70.184 466.06 70.076 466.372 69.86C466.692 69.636 466.916 69.34 467.044 68.972H468.22C468.044 69.604 467.692 70.12 467.164 70.52C466.636 70.912 465.98 71.108 465.196 71.108C464.572 71.108 464.012 70.968 463.516 70.688C463.028 70.408 462.644 70.012 462.364 69.5C462.084 68.98 461.944 68.38 461.944 67.7C461.944 67.02 462.08 66.424 462.352 65.912C462.624 65.4 463.004 65.008 463.492 64.736C463.988 64.456 464.556 64.316 465.196 64.316C465.82 64.316 466.372 64.452 466.852 64.724C467.332 64.996 467.7 65.372 467.956 65.852C468.22 66.324 468.352 66.86 468.352 67.46ZM467.224 67.232C467.224 66.816 467.132 66.46 466.948 66.164C466.764 65.86 466.512 65.632 466.192 65.48C465.88 65.32 465.532 65.24 465.148 65.24C464.596 65.24 464.124 65.416 463.732 65.768C463.348 66.12 463.128 66.608 463.072 67.232H467.224ZM469.385 67.688C469.385 67.016 469.521 66.428 469.793 65.924C470.065 65.412 470.437 65.016 470.909 64.736C471.389 64.456 471.925 64.316 472.517 64.316C473.029 64.316 473.505 64.436 473.945 64.676C474.385 64.908 474.721 65.216 474.953 65.6V62.12H476.057V71H474.953V69.764C474.737 70.156 474.417 70.48 473.993 70.736C473.569 70.984 473.073 71.108 472.505 71.108C471.921 71.108 471.389 70.964 470.909 70.676C470.437 70.388 470.065 69.984 469.793 69.464C469.521 68.944 469.385 68.352 469.385 67.688ZM474.953 67.7C474.953 67.204 474.853 66.772 474.653 66.404C474.453 66.036 474.181 65.756 473.837 65.564C473.501 65.364 473.129 65.264 472.721 65.264C472.313 65.264 471.941 65.36 471.605 65.552C471.269 65.744 471.001 66.024 470.801 66.392C470.601 66.76 470.501 67.192 470.501 67.688C470.501 68.192 470.601 68.632 470.801 69.008C471.001 69.376 471.269 69.66 471.605 69.86C471.941 70.052 472.313 70.148 472.721 70.148C473.129 70.148 473.501 70.052 473.837 69.86C474.181 69.66 474.453 69.376 474.653 69.008C474.853 68.632 474.953 68.196 474.953 67.7Z" fill="#505F79"/>
<path d="M538 105V101M538 101H684M538 101V97M684 101V105M684 101V97" stroke="#CED6DE" stroke-linecap="round" stroke-linejoin="round"/>
<path d="M611 101L611 93" stroke="#CED6DE" stroke-linecap="round" stroke-linejoin="round"/>
<circle cx="611" cy="101" r="2.5" fill="white" stroke="#CED6DE"/>
<path d="M588.813 62.636C589.725 62.636 590.513 62.808 591.177 63.152C591.849 63.488 592.361 63.972 592.713 64.604C593.073 65.236 593.253 65.98 593.253 66.836C593.253 67.692 593.073 68.436 592.713 69.068C592.361 69.692 591.849 70.172 591.177 70.508C590.513 70.836 589.725 71 588.813 71H586.209V62.636H588.813ZM588.813 70.1C589.893 70.1 590.717 69.816 591.285 69.248C591.853 68.672 592.137 67.868 592.137 66.836C592.137 65.796 591.849 64.984 591.273 64.4C590.705 63.816 589.885 63.524 588.813 63.524H587.301V70.1H588.813ZM595.258 63.356C595.05 63.356 594.874 63.284 594.73 63.14C594.586 62.996 594.514 62.82 594.514 62.612C594.514 62.404 594.586 62.228 594.73 62.084C594.874 61.94 595.05 61.868 595.258 61.868C595.458 61.868 595.626 61.94 595.762 62.084C595.906 62.228 595.978 62.404 595.978 62.612C595.978 62.82 595.906 62.996 595.762 63.14C595.626 63.284 595.458 63.356 595.258 63.356ZM595.786 64.424V71H594.694V64.424H595.786ZM599.975 71.108C599.471 71.108 599.019 71.024 598.619 70.856C598.219 70.68 597.903 70.44 597.671 70.136C597.439 69.824 597.311 69.468 597.287 69.068H598.415C598.447 69.396 598.599 69.664 598.871 69.872C599.151 70.08 599.515 70.184 599.963 70.184C600.379 70.184 600.707 70.092 600.947 69.908C601.187 69.724 601.307 69.492 601.307 69.212C601.307 68.924 601.179 68.712 600.923 68.576C600.667 68.432 600.271 68.292 599.735 68.156C599.247 68.028 598.847 67.9 598.535 67.772C598.231 67.636 597.967 67.44 597.743 67.184C597.527 66.92 597.419 66.576 597.419 66.152C597.419 65.816 597.519 65.508 597.719 65.228C597.919 64.948 598.203 64.728 598.571 64.568C598.939 64.4 599.359 64.316 599.831 64.316C600.559 64.316 601.147 64.5 601.595 64.868C602.043 65.236 602.283 65.74 602.315 66.38H601.223C601.199 66.036 601.059 65.76 600.803 65.552C600.555 65.344 600.219 65.24 599.795 65.24C599.403 65.24 599.091 65.324 598.859 65.492C598.627 65.66 598.511 65.88 598.511 66.152C598.511 66.368 598.579 66.548 598.715 66.692C598.859 66.828 599.035 66.94 599.243 67.028C599.459 67.108 599.755 67.2 600.131 67.304C600.603 67.432 600.987 67.56 601.283 67.688C601.579 67.808 601.831 67.992 602.039 68.24C602.255 68.488 602.367 68.812 602.375 69.212C602.375 69.572 602.275 69.896 602.075 70.184C601.875 70.472 601.591 70.7 601.223 70.868C600.863 71.028 600.447 71.108 599.975 71.108ZM603.508 67.688C603.508 67.016 603.644 66.428 603.916 65.924C604.188 65.412 604.56 65.016 605.032 64.736C605.512 64.456 606.044 64.316 606.628 64.316C607.204 64.316 607.704 64.44 608.128 64.688C608.552 64.936 608.868 65.248 609.076 65.624V64.424H610.18V71H609.076V69.776C608.86 70.16 608.536 70.48 608.104 70.736C607.68 70.984 607.184 71.108 606.616 71.108C606.032 71.108 605.504 70.964 605.032 70.676C604.56 70.388 604.188 69.984 603.916 69.464C603.644 68.944 603.508 68.352 603.508 67.688ZM609.076 67.7C609.076 67.204 608.976 66.772 608.776 66.404C608.576 66.036 608.304 65.756 607.96 65.564C607.624 65.364 607.252 65.264 606.844 65.264C606.436 65.264 606.064 65.36 605.728 65.552C605.392 65.744 605.124 66.024 604.924 66.392C604.724 66.76 604.624 67.192 604.624 67.688C604.624 68.192 604.724 68.632 604.924 69.008C605.124 69.376 605.392 69.66 605.728 69.86C606.064 70.052 606.436 70.148 606.844 70.148C607.252 70.148 607.624 70.052 607.96 69.86C608.304 69.66 608.576 69.376 608.776 69.008C608.976 68.632 609.076 68.196 609.076 67.7ZM613.118 65.648C613.342 65.256 613.67 64.936 614.102 64.688C614.534 64.44 615.026 64.316 615.578 64.316C616.17 64.316 616.702 64.456 617.174 64.736C617.646 65.016 618.018 65.412 618.29 65.924C618.562 66.428 618.698 67.016 618.698 67.688C618.698 68.352 618.562 68.944 618.29 69.464C618.018 69.984 617.642 70.388 617.162 70.676C616.69 70.964 616.162 71.108 615.578 71.108C615.01 71.108 614.51 70.984 614.078 70.736C613.654 70.488 613.334 70.172 613.118 69.788V71H612.026V62.12H613.118V65.648ZM617.582 67.688C617.582 67.192 617.482 66.76 617.282 66.392C617.082 66.024 616.81 65.744 616.466 65.552C616.13 65.36 615.758 65.264 615.35 65.264C614.95 65.264 614.578 65.364 614.234 65.564C613.898 65.756 613.626 66.04 613.418 66.416C613.218 66.784 613.118 67.212 613.118 67.7C613.118 68.196 613.218 68.632 613.418 69.008C613.626 69.376 613.898 69.66 614.234 69.86C614.578 70.052 614.95 70.148 615.35 70.148C615.758 70.148 616.13 70.052 616.466 69.86C616.81 69.66 617.082 69.376 617.282 69.008C617.482 68.632 617.582 68.192 617.582 67.688ZM621.227 62.12V71H620.135V62.12H621.227ZM629.088 67.46C629.088 67.668 629.076 67.888 629.052 68.12H623.796C623.836 68.768 624.056 69.276 624.456 69.644C624.864 70.004 625.356 70.184 625.932 70.184C626.404 70.184 626.796 70.076 627.108 69.86C627.428 69.636 627.652 69.34 627.78 68.972H628.956C628.78 69.604 628.428 70.12 627.9 70.52C627.372 70.912 626.716 71.108 625.932 71.108C625.308 71.108 624.748 70.968 624.252 70.688C623.764 70.408 623.38 70.012 623.1 69.5C622.82 68.98 622.68 68.38 622.68 67.7C622.68 67.02 622.816 66.424 623.088 65.912C623.36 65.4 623.74 65.008 624.228 64.736C624.724 64.456 625.292 64.316 625.932 64.316C626.556 64.316 627.108 64.452 627.588 64.724C628.068 64.996 628.436 65.372 628.692 65.852C628.956 66.324 629.088 66.86 629.088 67.46ZM627.96 67.232C627.96 66.816 627.868 66.46 627.684 66.164C627.5 65.86 627.248 65.632 626.928 65.48C626.616 65.32 626.268 65.24 625.884 65.24C625.332 65.24 624.86 65.416 624.468 65.768C624.084 66.12 623.864 66.608 623.808 67.232H627.96ZM630.121 67.688C630.121 67.016 630.257 66.428 630.529 65.924C630.801 65.412 631.173 65.016 631.645 64.736C632.125 64.456 632.661 64.316 633.253 64.316C633.765 64.316 634.241 64.436 634.681 64.676C635.121 64.908 635.457 65.216 635.689 65.6V62.12H636.793V71H635.689V69.764C635.473 70.156 635.153 70.48 634.729 70.736C634.305 70.984 633.809 71.108 633.241 71.108C632.657 71.108 632.125 70.964 631.645 70.676C631.173 70.388 630.801 69.984 630.529 69.464C630.257 68.944 630.121 68.352 630.121 67.688ZM635.689 67.7C635.689 67.204 635.589 66.772 635.389 66.404C635.189 66.036 634.917 65.756 634.573 65.564C634.237 65.364 633.865 65.264 633.457 65.264C633.049 65.264 632.677 65.36 632.341 65.552C632.005 65.744 631.737 66.024 631.537 66.392C631.337 66.76 631.237 67.192 631.237 67.688C631.237 68.192 631.337 68.632 631.537 69.008C631.737 69.376 632.005 69.66 632.341 69.86C632.677 70.052 633.049 70.148 633.457 70.148C633.865 70.148 634.237 70.052 634.573 69.86C634.917 69.66 635.189 69.376 635.389 69.008C635.589 68.632 635.689 68.196 635.689 67.7Z" fill="#505F79"/>
<rect x="100.5" y="172.5" width="82" height="47" rx="7.5" fill="white"/>
<path d="M119.684 195.931C120.319 196.044 120.857 196.379 121.299 196.934C121.741 197.489 121.962 198.118 121.962 198.821C121.962 199.422 121.804 199.966 121.486 200.453C121.18 200.929 120.733 201.309 120.143 201.592C119.554 201.864 118.868 202 118.086 202H113.36V190.185H117.865C118.67 190.185 119.361 190.321 119.939 190.593C120.517 190.865 120.954 191.233 121.248 191.698C121.543 192.151 121.69 192.661 121.69 193.228C121.69 193.908 121.509 194.475 121.146 194.928C120.784 195.381 120.296 195.716 119.684 195.931ZM115.298 195.149H117.695C118.33 195.149 118.823 195.007 119.174 194.724C119.537 194.429 119.718 194.01 119.718 193.466C119.718 192.933 119.537 192.52 119.174 192.225C118.823 191.919 118.33 191.766 117.695 191.766H115.298V195.149ZM117.916 200.419C118.574 200.419 119.089 200.26 119.463 199.943C119.837 199.626 120.024 199.184 120.024 198.617C120.024 198.039 119.826 197.58 119.429 197.24C119.033 196.9 118.506 196.73 117.848 196.73H115.298V200.419H117.916ZM133.061 192.633V202H131.123V200.895C130.817 201.28 130.415 201.586 129.916 201.813C129.429 202.028 128.908 202.136 128.352 202.136C127.616 202.136 126.953 201.983 126.363 201.677C125.785 201.371 125.326 200.918 124.986 200.317C124.658 199.716 124.493 198.991 124.493 198.141V192.633H126.414V197.852C126.414 198.691 126.624 199.337 127.043 199.79C127.463 200.232 128.035 200.453 128.76 200.453C129.486 200.453 130.058 200.232 130.477 199.79C130.908 199.337 131.123 198.691 131.123 197.852V192.633H133.061ZM138.389 194.214V199.399C138.389 199.75 138.469 200.005 138.627 200.164C138.797 200.311 139.081 200.385 139.477 200.385H140.667V202H139.137C138.265 202 137.596 201.796 137.131 201.388C136.667 200.98 136.434 200.317 136.434 199.399V194.214H135.329V192.633H136.434V190.304H138.389V192.633H140.667V194.214H138.389ZM145.225 194.214V199.399C145.225 199.75 145.304 200.005 145.463 200.164C145.633 200.311 145.916 200.385 146.313 200.385H147.503V202H145.973C145.1 202 144.431 201.796 143.967 201.388C143.502 200.98 143.27 200.317 143.27 199.399V194.214H142.165V192.633H143.27V190.304H145.225V192.633H147.503V194.214H145.225ZM153.862 202.153C152.978 202.153 152.179 201.955 151.465 201.558C150.751 201.15 150.19 200.583 149.782 199.858C149.374 199.121 149.17 198.271 149.17 197.308C149.17 196.356 149.379 195.512 149.799 194.775C150.218 194.038 150.79 193.472 151.516 193.075C152.241 192.678 153.051 192.48 153.947 192.48C154.842 192.48 155.652 192.678 156.378 193.075C157.103 193.472 157.675 194.038 158.095 194.775C158.514 195.512 158.724 196.356 158.724 197.308C158.724 198.26 158.508 199.104 158.078 199.841C157.647 200.578 157.058 201.15 156.31 201.558C155.573 201.955 154.757 202.153 153.862 202.153ZM153.862 200.47C154.36 200.47 154.825 200.351 155.256 200.113C155.698 199.875 156.055 199.518 156.327 199.042C156.599 198.566 156.735 197.988 156.735 197.308C156.735 196.628 156.604 196.056 156.344 195.591C156.083 195.115 155.737 194.758 155.307 194.52C154.876 194.282 154.411 194.163 153.913 194.163C153.414 194.163 152.949 194.282 152.519 194.52C152.099 194.758 151.765 195.115 151.516 195.591C151.266 196.056 151.142 196.628 151.142 197.308C151.142 198.317 151.397 199.099 151.907 199.654C152.428 200.198 153.08 200.47 153.862 200.47ZM165.876 192.48C166.612 192.48 167.27 192.633 167.848 192.939C168.437 193.245 168.896 193.698 169.225 194.299C169.553 194.9 169.718 195.625 169.718 196.475V202H167.797V196.764C167.797 195.925 167.587 195.285 167.168 194.843C166.748 194.39 166.176 194.163 165.451 194.163C164.725 194.163 164.147 194.39 163.717 194.843C163.297 195.285 163.088 195.925 163.088 196.764V202H161.15V192.633H163.088V193.704C163.405 193.319 163.807 193.018 164.295 192.803C164.793 192.588 165.32 192.48 165.876 192.48Z" fill="#6070FF"/>
<rect x="100.5" y="172.5" width="82" height="47" rx="7.5" stroke="#7F8CFF"/>
<g filter="url(#filter0_d_37_2238)">
<rect x="252" y="172" width="83" height="48" rx="8" fill="#6070FF"/>
<path d="M271.684 195.931C272.319 196.044 272.857 196.379 273.299 196.934C273.741 197.489 273.962 198.118 273.962 198.821C273.962 199.422 273.804 199.966 273.486 200.453C273.18 200.929 272.733 201.309 272.143 201.592C271.554 201.864 270.868 202 270.086 202H265.36V190.185H269.865C270.67 190.185 271.361 190.321 271.939 190.593C272.517 190.865 272.954 191.233 273.248 191.698C273.543 192.151 273.69 192.661 273.69 193.228C273.69 193.908 273.509 194.475 273.146 194.928C272.784 195.381 272.296 195.716 271.684 195.931ZM267.298 195.149H269.695C270.33 195.149 270.823 195.007 271.174 194.724C271.537 194.429 271.718 194.01 271.718 193.466C271.718 192.933 271.537 192.52 271.174 192.225C270.823 191.919 270.33 191.766 269.695 191.766H267.298V195.149ZM269.916 200.419C270.574 200.419 271.089 200.26 271.463 199.943C271.837 199.626 272.024 199.184 272.024 198.617C272.024 198.039 271.826 197.58 271.429 197.24C271.033 196.9 270.506 196.73 269.848 196.73H267.298V200.419H269.916ZM285.061 192.633V202H283.123V200.895C282.817 201.28 282.415 201.586 281.916 201.813C281.429 202.028 280.908 202.136 280.352 202.136C279.616 202.136 278.953 201.983 278.363 201.677C277.785 201.371 277.326 200.918 276.986 200.317C276.658 199.716 276.493 198.991 276.493 198.141V192.633H278.414V197.852C278.414 198.691 278.624 199.337 279.043 199.79C279.463 200.232 280.035 200.453 280.76 200.453C281.486 200.453 282.058 200.232 282.477 199.79C282.908 199.337 283.123 198.691 283.123 197.852V192.633H285.061ZM290.389 194.214V199.399C290.389 199.75 290.469 200.005 290.627 200.164C290.797 200.311 291.081 200.385 291.477 200.385H292.667V202H291.137C290.265 202 289.596 201.796 289.131 201.388C288.667 200.98 288.434 200.317 288.434 199.399V194.214H287.329V192.633H288.434V190.304H290.389V192.633H292.667V194.214H290.389ZM297.225 194.214V199.399C297.225 199.75 297.304 200.005 297.463 200.164C297.633 200.311 297.916 200.385 298.313 200.385H299.503V202H297.973C297.1 202 296.431 201.796 295.967 201.388C295.502 200.98 295.27 200.317 295.27 199.399V194.214H294.165V192.633H295.27V190.304H297.225V192.633H299.503V194.214H297.225ZM305.862 202.153C304.978 202.153 304.179 201.955 303.465 201.558C302.751 201.15 302.19 200.583 301.782 199.858C301.374 199.121 301.17 198.271 301.17 197.308C301.17 196.356 301.379 195.512 301.799 194.775C302.218 194.038 302.79 193.472 303.516 193.075C304.241 192.678 305.051 192.48 305.947 192.48C306.842 192.48 307.652 192.678 308.378 193.075C309.103 193.472 309.675 194.038 310.095 194.775C310.514 195.512 310.724 196.356 310.724 197.308C310.724 198.26 310.508 199.104 310.078 199.841C309.647 200.578 309.058 201.15 308.31 201.558C307.573 201.955 306.757 202.153 305.862 202.153ZM305.862 200.47C306.36 200.47 306.825 200.351 307.256 200.113C307.698 199.875 308.055 199.518 308.327 199.042C308.599 198.566 308.735 197.988 308.735 197.308C308.735 196.628 308.604 196.056 308.344 195.591C308.083 195.115 307.737 194.758 307.307 194.52C306.876 194.282 306.411 194.163 305.913 194.163C305.414 194.163 304.949 194.282 304.519 194.52C304.099 194.758 303.765 195.115 303.516 195.591C303.266 196.056 303.142 196.628 303.142 197.308C303.142 198.317 303.397 199.099 303.907 199.654C304.428 200.198 305.08 200.47 305.862 200.47ZM317.876 192.48C318.612 192.48 319.27 192.633 319.848 192.939C320.437 193.245 320.896 193.698 321.225 194.299C321.553 194.9 321.718 195.625 321.718 196.475V202H319.797V196.764C319.797 195.925 319.587 195.285 319.168 194.843C318.748 194.39 318.176 194.163 317.451 194.163C316.725 194.163 316.147 194.39 315.717 194.843C315.297 195.285 315.088 195.925 315.088 196.764V202H313.15V192.633H315.088V193.704C315.405 193.319 315.807 193.018 316.295 192.803C316.793 192.588 317.32 192.48 317.876 192.48Z" fill="white"/>
</g>
<rect x="407" y="172" width="83" height="48" rx="8" fill="#2230D2"/>
<path d="M426.684 195.931C427.319 196.044 427.857 196.379 428.299 196.934C428.741 197.489 428.962 198.118 428.962 198.821C428.962 199.422 428.804 199.966 428.486 200.453C428.18 200.929 427.733 201.309 427.143 201.592C426.554 201.864 425.868 202 425.086 202H420.36V190.185H424.865C425.67 190.185 426.361 190.321 426.939 190.593C427.517 190.865 427.954 191.233 428.248 191.698C428.543 192.151 428.69 192.661 428.69 193.228C428.69 193.908 428.509 194.475 428.146 194.928C427.784 195.381 427.296 195.716 426.684 195.931ZM422.298 195.149H424.695C425.33 195.149 425.823 195.007 426.174 194.724C426.537 194.429 426.718 194.01 426.718 193.466C426.718 192.933 426.537 192.52 426.174 192.225C425.823 191.919 425.33 191.766 424.695 191.766H422.298V195.149ZM424.916 200.419C425.574 200.419 426.089 200.26 426.463 199.943C426.837 199.626 427.024 199.184 427.024 198.617C427.024 198.039 426.826 197.58 426.429 197.24C426.033 196.9 425.506 196.73 424.848 196.73H422.298V200.419H424.916ZM440.061 192.633V202H438.123V200.895C437.817 201.28 437.415 201.586 436.916 201.813C436.429 202.028 435.908 202.136 435.352 202.136C434.616 202.136 433.953 201.983 433.363 201.677C432.785 201.371 432.326 200.918 431.986 200.317C431.658 199.716 431.493 198.991 431.493 198.141V192.633H433.414V197.852C433.414 198.691 433.624 199.337 434.043 199.79C434.463 200.232 435.035 200.453 435.76 200.453C436.486 200.453 437.058 200.232 437.477 199.79C437.908 199.337 438.123 198.691 438.123 197.852V192.633H440.061ZM445.389 194.214V199.399C445.389 199.75 445.469 200.005 445.627 200.164C445.797 200.311 446.081 200.385 446.477 200.385H447.667V202H446.137C445.265 202 444.596 201.796 444.131 201.388C443.667 200.98 443.434 200.317 443.434 199.399V194.214H442.329V192.633H443.434V190.304H445.389V192.633H447.667V194.214H445.389ZM452.225 194.214V199.399C452.225 199.75 452.304 200.005 452.463 200.164C452.633 200.311 452.916 200.385 453.313 200.385H454.503V202H452.973C452.1 202 451.431 201.796 450.967 201.388C450.502 200.98 450.27 200.317 450.27 199.399V194.214H449.165V192.633H450.27V190.304H452.225V192.633H454.503V194.214H452.225ZM460.862 202.153C459.978 202.153 459.179 201.955 458.465 201.558C457.751 201.15 457.19 200.583 456.782 199.858C456.374 199.121 456.17 198.271 456.17 197.308C456.17 196.356 456.379 195.512 456.799 194.775C457.218 194.038 457.79 193.472 458.516 193.075C459.241 192.678 460.051 192.48 460.947 192.48C461.842 192.48 462.652 192.678 463.378 193.075C464.103 193.472 464.675 194.038 465.095 194.775C465.514 195.512 465.724 196.356 465.724 197.308C465.724 198.26 465.508 199.104 465.078 199.841C464.647 200.578 464.058 201.15 463.31 201.558C462.573 201.955 461.757 202.153 460.862 202.153ZM460.862 200.47C461.36 200.47 461.825 200.351 462.256 200.113C462.698 199.875 463.055 199.518 463.327 199.042C463.599 198.566 463.735 197.988 463.735 197.308C463.735 196.628 463.604 196.056 463.344 195.591C463.083 195.115 462.737 194.758 462.307 194.52C461.876 194.282 461.411 194.163 460.913 194.163C460.414 194.163 459.949 194.282 459.519 194.52C459.099 194.758 458.765 195.115 458.516 195.591C458.266 196.056 458.142 196.628 458.142 197.308C458.142 198.317 458.397 199.099 458.907 199.654C459.428 200.198 460.08 200.47 460.862 200.47ZM472.876 192.48C473.612 192.48 474.27 192.633 474.848 192.939C475.437 193.245 475.896 193.698 476.225 194.299C476.553 194.9 476.718 195.625 476.718 196.475V202H474.797V196.764C474.797 195.925 474.587 195.285 474.168 194.843C473.748 194.39 473.176 194.163 472.451 194.163C471.725 194.163 471.147 194.39 470.717 194.843C470.297 195.285 470.088 195.925 470.088 196.764V202H468.15V192.633H470.088V193.704C470.405 193.319 470.807 193.018 471.295 192.803C471.793 192.588 472.32 192.48 472.876 192.48Z" fill="white"/>
<path d="M583.684 195.931C584.319 196.044 584.857 196.379 585.299 196.934C585.741 197.489 585.962 198.118 585.962 198.821C585.962 199.422 585.804 199.966 585.486 200.453C585.18 200.929 584.733 201.309 584.143 201.592C583.554 201.864 582.868 202 582.086 202H577.36V190.185H581.865C582.67 190.185 583.361 190.321 583.939 190.593C584.517 190.865 584.954 191.233 585.248 191.698C585.543 192.151 585.69 192.661 585.69 193.228C585.69 193.908 585.509 194.475 585.146 194.928C584.784 195.381 584.296 195.716 583.684 195.931ZM579.298 195.149H581.695C582.33 195.149 582.823 195.007 583.174 194.724C583.537 194.429 583.718 194.01 583.718 193.466C583.718 192.933 583.537 192.52 583.174 192.225C582.823 191.919 582.33 191.766 581.695 191.766H579.298V195.149ZM581.916 200.419C582.574 200.419 583.089 200.26 583.463 199.943C583.837 199.626 584.024 199.184 584.024 198.617C584.024 198.039 583.826 197.58 583.429 197.24C583.033 196.9 582.506 196.73 581.848 196.73H579.298V200.419H581.916ZM597.061 192.633V202H595.123V200.895C594.817 201.28 594.415 201.586 593.916 201.813C593.429 202.028 592.908 202.136 592.352 202.136C591.616 202.136 590.953 201.983 590.363 201.677C589.785 201.371 589.326 200.918 588.986 200.317C588.658 199.716 588.493 198.991 588.493 198.141V192.633H590.414V197.852C590.414 198.691 590.624 199.337 591.043 199.79C591.463 200.232 592.035 200.453 592.76 200.453C593.486 200.453 594.058 200.232 594.477 199.79C594.908 199.337 595.123 198.691 595.123 197.852V192.633H597.061ZM602.389 194.214V199.399C602.389 199.75 602.469 200.005 602.627 200.164C602.797 200.311 603.081 200.385 603.477 200.385H604.667V202H603.137C602.265 202 601.596 201.796 601.131 201.388C600.667 200.98 600.434 200.317 600.434 199.399V194.214H599.329V192.633H600.434V190.304H602.389V192.633H604.667V194.214H602.389ZM609.225 194.214V199.399C609.225 199.75 609.304 200.005 609.463 200.164C609.633 200.311 609.916 200.385 610.313 200.385H611.503V202H609.973C609.1 202 608.431 201.796 607.967 201.388C607.502 200.98 607.27 200.317 607.27 199.399V194.214H606.165V192.633H607.27V190.304H609.225V192.633H611.503V194.214H609.225ZM617.862 202.153C616.978 202.153 616.179 201.955 615.465 201.558C614.751 201.15 614.19 200.583 613.782 199.858C613.374 199.121 613.17 198.271 613.17 197.308C613.17 196.356 613.379 195.512 613.799 194.775C614.218 194.038 614.79 193.472 615.516 193.075C616.241 192.678 617.051 192.48 617.947 192.48C618.842 192.48 619.652 192.678 620.378 193.075C621.103 193.472 621.675 194.038 622.095 194.775C622.514 195.512 622.724 196.356 622.724 197.308C622.724 198.26 622.508 199.104 622.078 199.841C621.647 200.578 621.058 201.15 620.31 201.558C619.573 201.955 618.757 202.153 617.862 202.153ZM617.862 200.47C618.36 200.47 618.825 200.351 619.256 200.113C619.698 199.875 620.055 199.518 620.327 199.042C620.599 198.566 620.735 197.988 620.735 197.308C620.735 196.628 620.604 196.056 620.344 195.591C620.083 195.115 619.737 194.758 619.307 194.52C618.876 194.282 618.411 194.163 617.913 194.163C617.414 194.163 616.949 194.282 616.519 194.52C616.099 194.758 615.765 195.115 615.516 195.591C615.266 196.056 615.142 196.628 615.142 197.308C615.142 198.317 615.397 199.099 615.907 199.654C616.428 200.198 617.08 200.47 617.862 200.47ZM629.876 192.48C630.612 192.48 631.27 192.633 631.848 192.939C632.437 193.245 632.896 193.698 633.225 194.299C633.553 194.9 633.718 195.625 633.718 196.475V202H631.797V196.764C631.797 195.925 631.587 195.285 631.168 194.843C630.748 194.39 630.176 194.163 629.451 194.163C628.725 194.163 628.147 194.39 627.717 194.843C627.297 195.285 627.088 195.925 627.088 196.764V202H625.15V192.633H627.088V193.704C627.405 193.319 627.807 193.018 628.295 192.803C628.793 192.588 629.32 192.48 629.876 192.48Z" fill="#5E6C84"/>
<rect x="564.5" y="172.5" width="82" height="47" rx="7.5" stroke="#C1C7D0"/>
<defs>
<filter id="filter0_d_37_2238" x="236" y="164" width="115" height="80" filterUnits="userSpaceOnUse" color-interpolation-filters="sRGB">
<feFlood flood-opacity="0" result="BackgroundImageFix"/>
<feColorMatrix in="SourceAlpha" type="matrix" values="0 0 0 0 0 0 0 0 0 0 0 0 0 0 0 0 0 0 127 0" result="hardAlpha"/>
<feOffset dy="8"/>
<feGaussianBlur stdDeviation="8"/>
<feColorMatrix type="matrix" values="0 0 0 0 0.25098 0 0 0 0 0.32549 0 0 0 0 0.988235 0 0 0 0.24 0"/>
<feBlend mode="normal" in2="BackgroundImageFix" result="effect1_dropShadow_37_2238"/>
<feBlend mode="normal" in="SourceGraphic" in2="effect1_dropShadow_37_2238" result="shape"/>
</filter>
</defs>
</svg>
